<?xml version="1.0" encoding="UTF-8"?><svg id="Livello_2" xmlns="http://www.w3.org/2000/svg" viewBox="0 0 523.49 52.91"><defs><style>.cls-1{fill:#1d1d1b;}</style></defs><g id="Livello_1-2"><path class="cls-1" d="M12.85,51.59V17.12l-12.85.45V1.16h48.2v16.41l-12.85-.45v34.48H12.85Z"/><path class="cls-1" d="M41.96,51.59V1.16h42.53v13.84h-19.66v4.69h17.86v13.23h-17.86v4.84h20.23v13.84h-43.1Z"/><path class="cls-1" d="M127.12,50.69c-5.95,1.81-12.95,2.04-15.88,2.04-8.22,0-17.01-2.34-23.25-7.33-5.95-4.69-9.17-11.49-9.17-18.6,0-7.79,3.69-14.44,9.45-19.13C92.71,4.11,100.27.03,112.09.03c4.73,0,10.02.6,15.03,1.97l.66,19.2c-2.65-2.12-7.56-4.99-13.33-4.99-3.59,0-6.9,1.13-9.17,3.1-2.17,1.89-3.31,4.54-3.31,7.18s1.23,5.37,3.69,7.26c1.89,1.44,4.82,2.87,9.36,2.87,6.43,0,10.87-3.1,12.76-4.76l-.66,18.83Z"/><path class="cls-1" d="M123.81,51.59V1.16h22.02v17.09h13.99V1.16h22.02v50.43h-22.02v-17.54h-13.99v17.54h-22.02Z"/><path class="cls-1" d="M168.04,51.59V1.16h21.83l14.65,19.05c2.36,3.02,3.88,4.99,5.95,8.92h.66c-.94-3.18-1.98-8.24-1.98-11.95V1.16h21.93v50.43h-21.93l-15.69-19.88c-1.42-1.81-3.12-4.46-4.35-6.58h-.66c.66,2.72,1.42,7.03,1.42,9.3v17.16h-21.83Z"/><path class="cls-1" d="M288.76,44.61c-5.39,4.39-14.18,8.09-26.18,8.09s-20.79-3.71-26.18-8.09c-4.91-4.01-8.79-10.21-8.79-18.3s3.88-14.21,8.79-18.22c5.39-4.39,14.18-8.09,26.18-8.09s20.79,3.7,26.18,8.09c4.92,4.01,8.79,10.21,8.79,18.22s-3.88,14.29-8.79,18.3ZM254.36,18.83c-2.27,1.89-3.59,4.84-3.59,7.56,0,2.87,1.32,5.67,3.59,7.49,1.89,1.51,4.73,2.57,8.22,2.57s6.33-1.06,8.22-2.57c2.08-1.66,3.59-4.31,3.59-7.49s-1.32-5.82-3.59-7.56c-1.7-1.36-4.44-2.57-8.22-2.57-4.06,0-6.71,1.29-8.22,2.57Z"/><path class="cls-1" d="M322.09,1.16c8.7,0,13.14,1.81,16.07,3.78,4.82,3.25,6.24,7.56,6.24,11.34,0,4.91-2.46,9.22-7.37,11.87-1.61.91-3.88,1.74-6.9,2.19l19.66,21.25h-15.31l-16.82-20.26h-1.51v20.26h-12.29V1.16h18.24ZM316.13,24.38h3.5c2.36,0,12.1-.23,12.1-7.64s-9.64-7.56-11.91-7.56h-3.69v15.2Z"/><path class="cls-1" d="M345.24,26.82c0-15.05,14.65-26.08,32.8-26.08s32.8,11.04,32.8,26.08-14.55,26.08-32.8,26.08-32.8-11.11-32.8-26.08ZM352.42,26.82c0,11.57,11.44,20.79,25.61,20.79s25.61-9.22,25.61-20.79-11.44-20.79-25.61-20.79-25.61,9.22-25.61,20.79Z"/><path class="cls-1" d="M386.26,26.82c0-15.05,14.65-26.08,32.8-26.08s32.8,11.04,32.8,26.08-14.55,26.08-32.8,26.08-32.8-11.11-32.8-26.08ZM393.44,26.82c0,11.57,11.44,20.79,25.61,20.79s25.61-9.22,25.61-20.79-11.44-20.79-25.61-20.79-25.61,9.22-25.61,20.79Z"/><path class="cls-1" d="M460.92,1.57h8.88l16.73,32.06L504.02,1.57h8.88l10.59,50.43h-12.48l-5.67-31.07-16.92,31.07h-4.16l-16.16-31.07-6.43,31.07h-12.48l11.72-50.43Z"/></g></svg>