<?xml version="1.0" encoding="UTF-8"?><svg id="Livello_1" xmlns="http://www.w3.org/2000/svg" viewBox="0 0 2050.79 1402.34"><path d="M621.68,256.21c-7.32,14.74-11.55,30.13-13.78,46.49-4.4,32.23-2.04,94.51,15.97,122.29,16.49,25.42,36.43-.31,43.59-18.24l1.97,9.47c2.72,55.5,2.82,111.04-3.09,166.36-3.12,29.21-8.92,58.11-11.83,87.34-1.74.23-.93-2.26-.98-3.47-.42-10.28.53-20.69.04-30.96-3.12-64.79-32.11-202.35-84.13-244.68-18-14.65-35.96-13.46-53.68.99-34.4-19.18-63.69,20.67-76.29,48.16-32.14,70.11-20.82,155.22-5.49,228.16,2.12,10.1,5.45,20.66,7.2,30.67.19,1.1,1.16,3.38-.04,4.02-13.9-24.95-25.1-51.67-33.6-78.98-20.15-64.78-26.91-135.16-9.4-201.36,1.36-5.13,5.1-19.9,7.17-23.71.24-.45,1.15-1.25,1.48-.99.35,6.67,11.03,26.4,18.91,22.46,4.91-2.45,27.13-56.65,30.31-65.37,23.27-63.84,39.5-145.27-3.44-204.32,18.78,6.17,32.05,20.53,45.75,33.88,15.48-70.8,59.47-131.18,106.45-184.43-2.98,7.17-7.38,13.59-10.79,20.58-15.36,31.44-27.37,67.58-34.65,101.85-11.17,52.59-22.21,152.38,62.36,133.78ZM523.69,178.47c-19.67,22.41-18.35,55.13-22.52,83.08-5.01,33.51-16.27,65.52-28.7,96.81l2.24,1.34c20.21-2.76,38.54-11.24,57.94-16.81,4.9,4.04,8.4,10.02,13.42,14.51,9.8,8.78,26.43,17.65,39.58,19.21,6.8.8,6.68-5.41,7.18-11.26,2.5-29.38-6.48-56.93-22.45-81.15-7.48-11.34-17.87-20.69-25.1-31.67-11.34-17.23-16.09-37.55-18.96-57.76-.32-2.28-.69-16.33-2.61-16.3Z"/><path d="M999.82,498.88c-2.32,23-20.05,45.9-30.49,65.78,18.24,21.28,33.56,43.87,33.47,73.26l-8.14-16.25c-46.86-64.89-190.44-96.2-218.2,2.29-4.41,15.65-3.83,27.6-4.47,43.38-.05,1.21.75,3.71-.98,3.47-1.81-14.23-5.07-28.25-6.83-42.5-6.64-53.82-1.46-107.47-.1-161.28.62-24.63,4.04-72.91-32.87-68.33,11.84-9.29,16.93-23.33,20.81-37.45,12.49-45.38,10.34-105.87-2.19-151.14-7.14-25.78-19.64-55.7-45.49-67.06,24.19.58,43.17-19.78,57.69-36.9,27.59-32.53,48.32-71.81,82.59-98.15l-37.16,53.96c-8.15,13.25-18.21,31.58-19.42,47.33-.38,5.02,1.19,8.77.62,13.57-.85,7.2-6.7,19.14-8.97,26.91-6.51,22.34-20.64,75.59,1.35,91.88,11.99,8.89,29.4,4.82,42.69,1.59-29.48,38.49-41.99,95.96-38.79,144,1.08,16.23,5.53,41.04,22.94,46.92-3.2,9.02-.68,18.12-3.86,27.03-1.25,3.52-4.51,7.19-5.49,10.44-4,13.14-3.64,50.96,3.67,62.77,11.87,19.16,31.21-5.45,38.95-16.05,17.54,14.68,39.3,27.41,62.64,28.9,41.21,2.64,80.4-29.38,94.07-66.82.37-.28,1.98,1.31,1.98,1.49,0,5.33.52,11.82,0,16.94Z"/><path d="M1285.69,59.36c-3.12,7.08-7.94,13.38-10.7,20.67-12.41,32.75,3.62,51.84,13.72,81.47,7.5,22.01,12.73,45.08,14.9,68.29l-14.4-32.91c-27.5-50.72-80.34-75.68-136.89-58.3-14.64,4.5-39.39,16.64-49.68,28-7.04,7.77,2.83,22.93,8.37,29.34,2.11,2.44,11.33,9.82,11.41,11.4-2.96,9.56-7.61,18.52-10.92,27.94-31.35,89.33-20.91,166.66,94.36,129.37,25.1-8.12,48.2-20.87,71.87-32.17-12.4,20.77.09,42.01,16.45,55.78l15.39,10.98c-32.27-7.98-65.56-14-99.07-11.99-26.41,1.58-60.68,12.08-57.2,44.89l-6.93-10.48c-13.41-14.24-26.09,4.09-31.73,16.11-7.53,16.06-9.84,34.07-11.06,51.6,5.52,14.02,18.33,27.54,19.86,42.95,1.22,12.31-3.71,36.05,7.03,44.79,4.55,3.7,17.6.62,23.3.51,33.52-.63,66.4-1.25,98.62,8.97,11.87,3.76,9.87,7.53,23.71,1.89,15.1-6.15,34.01-18.67,46.88-28.8s27.73-23.2,34.39-38.82c1.79-.24.9,2.16.73,3.22-3.68,23.23-25.72,43.83-37,63.63-10.03,17.59-13.06,35.78-8.55,55.73l-10.29-13.6c-36.91-36.93-131.61-33.1-180.17-27.13-19.49,2.39-26.27,19.65-31.19,36.54l-6.25,36.08c-8.19-29.45,2.4-59.68,4.96-89.21,2.28-26.35-.57-54.57-7.69-79.99-2-7.14-9.92-24.25-10.28-29.65-.42-6.15,3.87-19.82,4.88-27.06,7.35-52.73,5.21-115.19-32.51-156.31,14.29-20.78,25.14-45.36,27.69-70.78,4.17-41.68-8.48-72.68-50.59-82.9-1.03-.25-2.44.12-2.15-1.3,21.1-8.5,39.04-29.1,51.17-47.94,13.76-21.38,21.65-45.07,22.49-70.68l1.98,20.43c-.6,18.99-6.37,39.83-2.73,58.55,3.24,16.68,11.54,17.77,27.07,18.74,59.23,3.69,123.78-16.58,166.75-57.85Z"/><path d="M1575.93,326.77c-10.86-14.23-27.57-32.42-42.6-11.28-17.06,24-18.13,95.83-.18,119.44,16.71,21.97,45.15-.97,61.05-12.35,29.27,31.96,39.44,78.27,46.24,120.17,7.28,44.85,10.32,90.52,12.1,135.89l-11.22-47.06c-14.41-54.23-49.56-149.67-107.4-169.51-47.49-16.29-72.25,20.66-41.59,58.59-9.27,4.05-18.48,7.35-27.15,12.64-33.55,20.48-52.06,58.43-62.1,95.29-4.69,17.23-6.82,34.75-10.73,52.06-.25,1.1,0,3.22-1.48,2.97-2.17-33.16,2.23-64.47,13.44-95.67,16.45-45.75,55.75-99.26,13.41-143.55,4.91,2.17,9.16,4.96,14.68,5.71,37.44,5.1,58.9-36.13,32.36-63.02,12.32-19.85,16.82-42.54,7.54-64.67-9.13-21.77-33.92-41.76-58.1-30.69-3.9-.39-19.34-67.37-21.06-75.42-13.26-62.06-21.81-125.16-33.13-187.59,1.83.31,1.67,2.05,2.11,3.36,5.58,16.28,9,35.27,14.53,52.23,18.21,55.84,46.06,120.22,77.09,169.98,9.43,15.13,31.26,47.62,45.07,57.51,4.32,3.09,5.07,2.01,8.93-1.02,23.27-18.25,47.02-55.35,62.63-80.79,35.71-58.22,63.55-121.09,83.43-186.55l10.67-38.64c-1.28,31.71-9.17,63.3-17.19,93.91-20.17,77.01-47.22,152.29-71.37,228.05Z"/><path d="M274.26,870.99c-14.05,22.83-21.49,49.65-23.89,76.37-2.74,30.45.6,98.45,17.51,124.17,14.1,21.45,35.54-9.33,35.27-24.86,1.7.22,1.95,3.75,2.31,5.16,6.38,25.09,5.02,57.17,5.61,83.22,1.07,46.95.42,93.78-5.06,140.58-2.62,22.32-7.14,44.37-10.84,66.5-1.74.2-1.09-3.45-.97-4.47,5.75-50.58,2.81-95.26-6.3-145.44-9.29-51.17-24.82-102.8-50.47-148.05-9.22-1.82-17.78-1.27-26.91-3.98-8.34-2.48-18.12-9.9-26.4-10.52-14.4-1.07-26.29,17.69-34.97,26.85-47.39-25.46-66.61,27.79-72.91,64.69s-4.61,73.89-.02,110.49c7.3,58.24,25.24,114.56,46.68,168.83-.52,1.33-2.05-1.17-2.4-1.59-18.72-22.59-32.89-51.65-43.89-78.79-29.8-73.52-43.06-153.07-42.35-232.54l11.47,14.94c3.57,2.05,7.52,6.91,11.49,3.59,2.26-1.88,10.48-15.62,12.7-19.22,34.46-56.19,62.33-126.39,58.99-193.51-1.49-30-10.06-59.01-21.96-86.28,29.36-4.99,69.5-18.03,77.2-50.91,6.74-28.81-7.29-53.64-27.4-72.87,51.47-9.46,86.59-42.14,97.14-93.81,27.22-133.38-73.3-289.83-183.48-357.2-23-14.06-43.62-21.96-68.79-30.89-2.46-.87-1.89-1.37.26-1.27,27.88,1.32,84.63,26.65,109.72,40.78,111.31,62.71,188.84,194.06,193.59,322.04,2.01,54.07-14.44,145.78-82.23,151.26-6.96.56-20.1-3.32-20.46,5.52-.84,21,24.72,40.95,43.88,43.41-4.24,3.5-9.11,4.23-13.85,7.57-31.2,21.94-18.84,76.74,11.56,94.04,2.13,1.21,13.22,6.19,14.74,6.19h15.44ZM118.97,1021.63c21.4,5.74,41.07-11.1,58.17-21.55,16.8,13.55,35.85,26.17,58.34,25.19l.79-1.2c2.1-37.8.62-78.29-8.31-115.16-7.52-31.03-27.68-50.78-34.88-82.83-1.69-7.53-1.92-15.38-3.47-22.47-.3-1.35.13-2.53-1.49-3.47-22.98,16.09-32.65,39.29-36.23,66.48-6.58,49.97-7.74,97.79-28.83,144.79-1.44,3.22-5.05,6.03-4.08,10.22Z"/><path d="M439.97,766.47c-11.92,17.67-17.97,38.66-21.58,59.61-5.45,31.6-7.19,78.1,2.18,108.82,1.02,3.34,2,10.35,5.92,10.02,48.44-13.31,95.32-32.13,131.94-67.31,30.1-28.92,54.98-64.73,75.15-101.15l15.4-34.9c-7.16,69.32-43.38,130.39-75.65,190.35-2.81.52-2.59-3.08-4.73-5-1.05-.94-4.13-2.62-5.52-3.16-29.16-11.45-93.73,18.31-116.15,38.55-10,9.02-18.97,17.74-6.85,29.81,14.2,14.12,41.33,13.91,56.62,1.6.37,33.47,36.34,41.53,62.96,31.64,5.09-1.89,8.99-4.95,13.99-6.62,39.76,36.3,65.7,81.91,80.82,133.45,17.65,60.18,22.75,124.82,23.38,187.36l-4.14-30.23c-11.37-73.72-54.58-222.52-137.18-243.36-16.74-4.23-32.12-2.87-48.65,1.38-5.44-24.37-21.59-46-49.02-43.13-3.57,10.24-5.77,20.99-6.85,31.81-3.02,30.21-1.23,66.24,1,96.66,5.35,73.14,17.99,145.89,39.79,215.78-9.43-12.89-16.91-28.92-23.74-43.5-27.12-57.87-49.17-123.49-60.54-186.55-4.28-23.75-7.5-47.81-7.78-71.94,7.49,13.7,16.28,29.42,32.35,33.88l3.03-33.34c-1.49-7.54-1.06-15.24-2.16-22.84-4.45-30.73-22.45-60.87-56.6-61.44,7.88-13.6,17.22-26.11,23.75-40.5,29.15-64.27,28.65-142.29-20.25-196.71-7.18-7.99-15.9-14.28-23.4-21.9,14.54,4.62,26.48,16.61,39.09,25.13,19.27,13.01,39.15,25.01,63.42,17.73Z"/><path d="M968.35,891.57c-32.45,36.59-39.09,94.63-25.36,140.54,4.64,15.52,17.18,42.31,29.63,14.75l6.66-25.7c1.53,12.22,4.17,24.32,5.84,36.52,8.7,63.88,9.86,129.01,5.11,193.23l-7.96,57.32c-1.74.23-.94-2.26-.98-3.47-.37-8.95.46-18.02.04-26.97-2.51-53.56-17.06-117.3-35.83-167.44-13.93-37.2-51.49-124.95-97.99-67.28-30.95-21.75-58.07-9.4-72.29,23.27-33.39,76.74-5.31,207.69,23.28,284.03,2.29,6.1,6.14,12.77,8.04,18.86.29.92,1.68,3.98-.3,3.8-34.63-59.93-59.68-127.72-75.12-195.35-6.68-29.25-22.71-104.26-2.31-127.94.89-1.03.96-2.1,2.81-1.66-.48,8.49,1.79,17.64,6.99,24.39,8.62,11.19,10.11,5.43,15.7-4.16,38.32-65.76,31.6-174.72-4.61-240.21-4.38-7.91-10.3-14.99-14.09-23.25,18.05,1.75,35.58,2.26,52.7-4.51,33.86-13.39,51.15-51.04,63.43-82.97l9.19-26.16c-2.06,40.04-1.33,82.77,10.69,121.37,13.13,42.19,37.67,72,83.45,77.86,4.42.57,8.97-.59,13.3,1.14ZM836.78,795.04c-1.18.3-7.34,5.11-8.68,6.3-24.27,21.55-20.28,59.53-21.83,88.77-1.01,19.2-2.71,38.42-3.04,57.76l-6.85,61.67c1.13,3.46,17.28.92,20.84.2,15.01-3.05,25.48-13.6,38.07-21.29,16.66,10.05,37.7,21.1,57.86,18.75,8.91-1.04,5.58-2.62,5.42-8.43-1.03-39.74-5.26-86.13-32.26-117.18-16.78-19.3-29.65-26.45-38.59-53.03-1.59-4.73-7.46-33.17-9.23-33.66-.6-.18-1.14.01-1.71.16Z"/><path d="M1350.71,804.67c-13.84-7.27-28.5-13.33-43.58-17.64-46.61-13.34-112.18-17.57-151.02,16.62-25.19,22.17-29.9,53.68-24.81,85.73-73.19,42.51-32.59,152.06,38.27,171.9,57.4,16.07,112.01-21.53,151.28-59.29-4.56,15.57-10.03,30.92-13.44,46.83-6.01,28.09-8.87,61.33,3.64,88.06,16.94,36.21,53.46,28.21,80.47,8.61-6,14.84-19.59,24.84-28.27,37.96-12.89,19.5-13.5,45.04-20.23,67.44-41.39,137.67-169.98,142.23-259.56,46.09l-16.4-22.93c31.41,29.14,69.24,54.92,112.97,59.78,30.58,3.4,62.03-4.58,86.99-22.49,48.85-35.06,64.98-109.6.09-136.98,7.4-26.97-.88-54.12-24.58-69.53-39.54-25.7-102.67-15.15-130.53,23.4l-9.12,17.27c5.57-41.71,7.59-78.28-12.78-116.26-25.25-47.09-37.96-69.08-44.83-124.52-2.31-18.67-2.61-37.54-4.1-56.17,1.43-.24,1.39,1.76,1.68,2.78,4.8,17.36,4.98,25.04,16.83,39.96,2.58,3.24,8.5,12.46,12.89,9.15,1.97-1.49,11.18-16.77,12.91-19.99,17.14-31.91,33.11-96.24,19.87-130.56-1.8-4.66-4.71-8.85-7.45-12.96,23.56,8.88,49.09,11.3,74.11,12.99,62.25,4.2,126.05,2.93,174.73,49.27.87.82,5.02,4.43,3.96,5.49Z"/><path d="M1713.43,804.95l-7.69,14.71c-11.32,30.48-20.72,110.32-9.98,140.06,1.68,4.65,4.91,8.63,6.74,12.67-13.63,4.95-19.46,23.39-21.6,36.69-3.2,19.9-1.33,54.06,6.37,72.77.47,1.15.46,2.62,1.94,3.11,6.18,2.02,24.33-12.52,26.38-19.2l8.79-22.58.05,46.38c-.06,2.36-1,4.54-1.08,6.89-1.82,54.88-6.39,109.15-15.05,163.34-6.43,40.23-15.4,79.92-25.72,119.27-1.78.23-.97-2.24-.86-3.35.68-7.14,2.86-14.9,3.73-22.19,8.23-68.77,8.56-172.33-12.54-238.36-4.04-12.64-14.61-44.66-32.1-30.13,4.47-27.16,7.57-54.62,6-82.27-.12-2.15-1.08-12.52-1.53-13.42s-1.27-1.41-2.23-1.75c-5.99-2.18-16.17-2.02-23.38-4.49-12.37-4.23-13.33-11.62-27.55-3.13-11.77,7.02-19.31,22.26-21.99,35.3-42.76-37.33-61.95,21.33-66.52,55.46-.86,6.4-.23,15.12-1.36,20.57-.71,3.45-4.64,7.34-6.26,10.67-31.35,64.51-1.29,190.66,21.39,256.7,3.37,9.8,8.19,19.93,11.15,29.7.3.99,1.69,2.98.32,3.67-34.74-47.19-60.75-101-73.65-158.47-11.52-51.31-14.14-104.03-15.4-156.49l9.12,17.26c6.4,7.68,13.02,16.72,22.74,20.18,3.49-2.11,8.21-28.87,8.81-34.09,7.16-62.68-11.57-138.07-66.54-174.31,2.77-.97,5.45,1.21,8.45,1.51,43.89,4.36,35.77-58.7,29.87-85.74-6.51-29.84-19.72-58.91-37.33-83.71l18.4,12.96c18.71,11.57,39.73,20.3,62.2,15.94-3.03,13.65-7.1,27.01-9.47,40.84-7.54,43.94-8.3,111.95,19.02,149.45s59.52.18,69.08-30.81c11.06,5.34,20.26,13.63,31.48,18.8,51.63,23.8,71.8-5.46,61.56-55.68-7.18-35.24-27.75-67.45-45.27-98.19.05-2.19,6.25-6.8,7.93-8.97,12.17-15.77,16.19-36.72,16.95-56.29l10.76,33.56c9.33,22.03,28.51,50.69,55.89,45.18Z"/><path d="M2049.44,217.59c-113.33,51.61-216,146.78-249.42,270.18-16.77,61.91-16.62,131.13,18.23,186.79,6.82,10.9,15.45,20.21,22.99,30.53-19.98,25.01-57.09,78.05-7.85,94.05,40.6,13.19,99.74-7.47,133.41-31.44,12.04-8.57,22.69-19.04,31.15-31.17-9.64,29.38-35.31,54.15-33.87,86.84-17.99-9.1-38.18-11.94-58.25-10.97-3.68.18-21.65,1.88-23.75,3.15-2.52,1.52-4.69,13.13-5.35,16.6-5.4,28.19-4.73,64.62,12.23,88.98,2.04,2.93,12.25,12.86,12.42,14.58-17.79,61.51-18.05,128.96,3.01,189.66-4.8,13.25-11.59,25.32-12.87,40.01-3.19,36.55,19.54,97.23,63.02,97.09,18.2-.06,29.9-14.45,39.44-27.84,21.54,53.79,7.95,113.73-5.98,167.69-1.71.19-1.09-3.45-1.02-4.52,2.25-34.59,7.4-75.37-10.4-107.29-7.61-13.64-11.38-13.56-26.65-10.71-14.33,2.67-24.9,10.77-37.2,17.71-54.84-19.17-96.47-4.03-133.91,37.41l-34.83,45.44c3.34-17.76,4.77-36.88,10.24-54.11,5.62-17.72,16.53-33.38,22.63-50.7,8.1,3.18,13.55,8.48,22.66,9.73,21.11,2.9,52.91-13.78,61.73-33.45,5.06-11.28.91-17.42-11.21-18.2-5.65-.37-10.69,1.94-15.9,2.03-1.21.02-2.1,0-1.5-1.52,1.58-3.99,7.63-11.21,10.12-15.82,42.11-77.78,38.16-185.47-5.74-261.69,7.89-20.49,20.45-43.09,17.25-65.62-4.81-33.97-35.53-103.97-74.27-57.01l-7.13,15.3c.88-24.63-10.42-47.79-26.9-65.38,3.02-1.22,6.2.63,9.45.59,23.09-.28,37.84-23.39,42.07-43.78.84-4.07,3.27-20.37,1.04-22.94-.64-.74-12.11-4.83-14.39-6.05-67.45-36.24-63.83-140.39-46.85-204.03,38.82-145.56,167.53-253.52,309.86-291.22,2.98-.45,5.23-1.13,2.32,1.08Z"/></svg>